# xmcd
#
# Track frame offsets: 
#        150
#        16893
#        37550
#        51646
#        53491
#        71558
#        87897
#        88811
#        100995
#        114191
#        129282
#        130945
#        147039
#        161336
#        162732
#        174285
#
# Disc length: 2996 seconds
#
# Revision: 2
# Processed by: cddbd v1.5.2PL0 Copyright (c) Steve Scherf et al.
# Submitted via: ExactAudioCopyFreeDBPlugin 1.0
#
DISCID=c60bb210
DTITLE=J.B.O. - Killeralbum
DYEAR=2011
DGENRE=Metal
TTITLE0=Dr. Met
TTITLE1=Rock 'n' Roll Märtyrer
TTITLE2=Killer
TTITLE3=Armageddon
TTITLE4=Dadadidadadadei
TTITLE5=Drei Akkorde
TTITLE6=Familienanzeige
TTITLE7=Ich bin dein
TTITLE8=Kalschnikow
TTITLE9=Jenseits
TTITLE10=Tony Marshall
TTITLE11=Download
TTITLE12=Heimatlied
TTITLE13=Reklame
TTITLE14=Drei Tage blau
TTITLE15=Nein Mann
EXTD=
EXTT0=
EXTT1=
EXTT2=
EXTT3=
EXTT4=
EXTT5=
EXTT6=
EXTT7=
EXTT8=
EXTT9=
EXTT10=
EXTT11=
EXTT12=
EXTT13=
EXTT14=
EXTT15=
PLAYORDER=
